<?xml version="1.0" encoding="UTF-8"?>
<svg version="1.1" xmlns="http://www.w3.org/2000/svg" width="512" height="512">
<path d="M0 0 C0.97055328 0.00215515 1.94110657 0.0043103 2.94107056 0.00653076 C17.26361716 0.05754633 31.30505979 0.38406747 45.375 3.3125 C46.3846582 3.52181152 47.39431641 3.73112305 48.43457031 3.94677734 C91.64574352 13.17831465 131.19833414 31.95536996 164.375 61.3125 C165.24511719 62.07175781 166.11523438 62.83101562 167.01171875 63.61328125 C177.01541327 72.45485114 186.13906784 81.80160755 194.375 92.3125 C195.15359375 93.27414063 195.9321875 94.23578125 196.734375 95.2265625 C213.04519194 115.74494687 225.30779254 138.78488147 234.375 163.3125 C235.06529297 165.15134766 235.06529297 165.15134766 235.76953125 167.02734375 C249.63193143 206.1501176 253.84652468 252.48760346 245.375 293.3125 C245.06900879 294.80305908 245.06900879 294.80305908 244.75683594 296.32373047 C232.67317485 353.46168251 202.13438688 407.37704527 155.375 443.3125 C154.83037109 443.73354004 154.28574219 444.15458008 153.72460938 444.58837891 C109.52805142 478.55425215 56.50041971 496.84136031 0.75 496.625 C-0.71099625 496.62226578 -0.71099625 496.62226578 -2.20150757 496.61947632 C-16.2346594 496.57522498 -29.83647352 496.10795926 -43.625 493.3125 C-45.45693452 492.97993547 -47.28897011 492.64792732 -49.12109375 492.31640625 C-96.33763137 483.31875063 -139.1942155 459.46570437 -173.625 426.3125 C-174.14868164 425.81073242 -174.67236328 425.30896484 -175.21191406 424.79199219 C-182.22742763 418.03711689 -188.68059464 411.0473889 -194.625 403.3125 C-195.04604004 402.76787109 -195.46708008 402.22324219 -195.90087891 401.66210938 C-211.94943866 380.77964608 -224.46783313 357.97560358 -233.625 333.3125 C-233.89940918 332.59046387 -234.17381836 331.86842773 -234.45654297 331.12451172 C-238.14046363 321.33945345 -240.65601747 311.40052675 -242.875 301.1875 C-243.12137207 300.05634766 -243.36774414 298.92519531 -243.62158203 297.75976562 C-247.01084526 281.48568067 -248.00188402 265.82251604 -247.9375 249.25 C-247.93534485 248.25327271 -247.9331897 247.25654541 -247.93096924 246.22961426 C-247.88067813 231.7451942 -247.59555759 217.54046478 -244.625 203.3125 C-244.42100586 202.32024414 -244.21701172 201.32798828 -244.00683594 200.30566406 C-233.84688498 152.25663837 -211.66902101 109.66842933 -177.625 74.3125 C-177.12323242 73.78881836 -176.62146484 73.26513672 -176.10449219 72.72558594 C-160.20108792 56.20854549 -141.60540677 42.52051743 -121.625 31.3125 C-120.98304688 30.94705078 -120.34109375 30.58160156 -119.6796875 30.20507812 C-97.36552881 17.58226483 -73.27680118 9.14011428 -48.1875 4 C-47.10927979 3.77896606 -47.10927979 3.77896606 -46.00927734 3.5534668 C-30.69956163 0.64390493 -15.54790345 -0.06221224 0 0 Z " fill="#E5EBFE" transform="translate(255.625,7.6875)"/>
<path d="M0 0 C0.97055328 0.00215515 1.94110657 0.0043103 2.94107056 0.00653076 C17.26361716 0.05754633 31.30505979 0.38406747 45.375 3.3125 C46.3846582 3.52181152 47.39431641 3.73112305 48.43457031 3.94677734 C91.64574352 13.17831465 131.19833414 31.95536996 164.375 61.3125 C165.24511719 62.07175781 166.11523438 62.83101562 167.01171875 63.61328125 C177.01541327 72.45485114 186.13906784 81.80160755 194.375 92.3125 C195.15359375 93.27414063 195.9321875 94.23578125 196.734375 95.2265625 C213.04519194 115.74494687 225.30779254 138.78488147 234.375 163.3125 C235.06529297 165.15134766 235.06529297 165.15134766 235.76953125 167.02734375 C249.63193143 206.1501176 253.84652468 252.48760346 245.375 293.3125 C245.06900879 294.80305908 245.06900879 294.80305908 244.75683594 296.32373047 C232.67317485 353.46168251 202.13438688 407.37704527 155.375 443.3125 C154.83037109 443.73354004 154.28574219 444.15458008 153.72460938 444.58837891 C109.52805142 478.55425215 56.50041971 496.84136031 0.75 496.625 C-0.71099625 496.62226578 -0.71099625 496.62226578 -2.20150757 496.61947632 C-16.2346594 496.57522498 -29.83647352 496.10795926 -43.625 493.3125 C-45.45693452 492.97993547 -47.28897011 492.64792732 -49.12109375 492.31640625 C-96.33763137 483.31875063 -139.1942155 459.46570437 -173.625 426.3125 C-174.14868164 425.81073242 -174.67236328 425.30896484 -175.21191406 424.79199219 C-182.22742763 418.03711689 -188.68059464 411.0473889 -194.625 403.3125 C-195.04604004 402.76787109 -195.46708008 402.22324219 -195.90087891 401.66210938 C-211.94943866 380.77964608 -224.46783313 357.97560358 -233.625 333.3125 C-233.89940918 332.59046387 -234.17381836 331.86842773 -234.45654297 331.12451172 C-238.14046363 321.33945345 -240.65601747 311.40052675 -242.875 301.1875 C-243.12137207 300.05634766 -243.36774414 298.92519531 -243.62158203 297.75976562 C-247.01084526 281.48568067 -248.00188402 265.82251604 -247.9375 249.25 C-247.93534485 248.25327271 -247.9331897 247.25654541 -247.93096924 246.22961426 C-247.88067813 231.7451942 -247.59555759 217.54046478 -244.625 203.3125 C-244.42100586 202.32024414 -244.21701172 201.32798828 -244.00683594 200.30566406 C-233.84688498 152.25663837 -211.66902101 109.66842933 -177.625 74.3125 C-177.12323242 73.78881836 -176.62146484 73.26513672 -176.10449219 72.72558594 C-160.20108792 56.20854549 -141.60540677 42.52051743 -121.625 31.3125 C-120.98304688 30.94705078 -120.34109375 30.58160156 -119.6796875 30.20507812 C-97.36552881 17.58226483 -73.27680118 9.14011428 -48.1875 4 C-47.10927979 3.77896606 -47.10927979 3.77896606 -46.00927734 3.5534668 C-30.69956163 0.64390493 -15.54790345 -0.06221224 0 0 Z M-44.625 20.3125 C-45.67429688 20.52680664 -46.72359375 20.74111328 -47.8046875 20.96191406 C-95.92187073 30.96690949 -144.37887856 57.62363289 -175.625 96.3125 C-176.52311251 97.38699048 -177.42158507 98.46118005 -178.3203125 99.53515625 C-217.34666932 146.68565213 -234.71247131 205.47991174 -231.625 266.3125 C-230.78676174 275.05999758 -229.27944095 283.68734786 -227.625 292.3125 C-227.4919043 293.03985352 -227.35880859 293.76720703 -227.22167969 294.51660156 C-223.03582186 317.29089693 -214.53641654 338.95819997 -203.625 359.3125 C-203.15392822 360.19663574 -203.15392822 360.19663574 -202.67333984 361.09863281 C-197.35111851 370.9933892 -191.09945482 380.14829005 -184.625 389.3125 C-181.2772869 388.19659563 -180.29791003 387.16353859 -178 384.5625 C-177.08347656 383.54929687 -177.08347656 383.54929687 -176.1484375 382.515625 C-173.69573543 378.96864047 -173.47758782 376.27067914 -174.125 372.0625 C-173.31619728 365.99647959 -169.10644179 363.18551246 -164.625 359.3125 C-163.79355469 358.590625 -162.96210938 357.86875 -162.10546875 357.125 C-110.43488538 313.74340077 -45.55729845 292.61282509 21.78515625 297.82861328 C38.50120375 299.37555817 55.41973224 302.02171994 71.375 307.3125 C72.1990332 307.58046387 73.02306641 307.84842773 73.87207031 308.12451172 C111.89386654 320.558594 145.94113594 339.87863594 174.375 368.3125 C174.6173891 373.76625471 174.6173891 373.76625471 173.55859375 376.15234375 C173.10944464 378.60286478 173.10944464 378.60286478 175.46484375 381.109375 C176.4014467 382.10576112 177.35130459 383.0898162 178.3125 384.0625 C178.79396484 384.56910156 179.27542969 385.07570313 179.77148438 385.59765625 C180.96153954 386.84662504 182.16686613 388.0810103 183.375 389.3125 C193.45042383 379.51454051 199.90402507 367.64073439 206.375 355.3125 C206.75269531 354.60722168 207.13039063 353.90194336 207.51953125 353.17529297 C218.82503889 331.84763258 226.85889726 307.17770126 230.375 283.3125 C230.59542969 282.01570313 230.81585938 280.71890625 231.04296875 279.3828125 C234.08768059 258.74416177 233.36619721 236.92575032 230.375 216.3125 C230.24609375 215.41015625 230.1171875 214.5078125 229.984375 213.578125 C222.19320718 160.77132092 195.34927361 107.44309622 153.375 73.3125 C152.22592062 72.34060214 151.07755672 71.36785809 149.9296875 70.39453125 C129.14044506 52.9367812 105.83873562 39.66461673 80.375 30.3125 C79.60462402 30.02503906 78.83424805 29.73757812 78.04052734 29.44140625 C75.82258734 28.6163915 73.60050504 27.80436581 71.375 27 C70.42524292 26.65424927 70.42524292 26.65424927 69.45629883 26.30151367 C33.69881318 13.74928557 -7.7669149 12.51103031 -44.625 20.3125 Z " fill="#4193FE" transform="translate(255.625,7.6875)"/>
<path d="M0 0 C2.73225877 2.1835206 5.34379052 4.44207588 7.92578125 6.80078125 C8.704375 7.49816406 9.48296875 8.19554688 10.28515625 8.9140625 C23.89895375 21.75328186 32.72076799 38.69175428 36.92578125 56.80078125 C37.15136719 57.75082031 37.37695312 58.70085937 37.609375 59.6796875 C42.3260576 83.06792744 37.49735278 109.08726204 24.67578125 129.23828125 C20.12511107 136.05250231 14.70302578 142.01509046 8.92578125 147.80078125 C8.2090625 148.52910156 7.49234375 149.25742188 6.75390625 150.0078125 C-9.76674262 165.75211509 -33.64564016 174.24688961 -56.26171875 174.11328125 C-57.26984619 174.1076416 -58.27797363 174.10200195 -59.31665039 174.09619141 C-85.94956779 173.66618187 -108.60696963 162.530629 -127.07421875 143.80078125 C-127.82316406 143.06214844 -128.57210937 142.32351562 -129.34375 141.5625 C-146.54266511 123.54943506 -153.80058559 98.77880225 -153.47631836 74.31787109 C-152.64233286 48.90863777 -141.98547107 26.50762556 -124.07421875 8.80078125 C-123.28402344 8.00027344 -122.49382812 7.19976562 -121.6796875 6.375 C-88.89685422 -25.10304389 -36.30019714 -25.96824776 0 0 Z " fill="#4193FE" transform="translate(313.07421875,98.19921875)"/>
<path d="M0 0 C0.97055328 0.00215515 1.94110657 0.0043103 2.94107056 0.00653076 C17.26361716 0.05754633 31.30505979 0.38406747 45.375 3.3125 C46.3846582 3.52181152 47.39431641 3.73112305 48.43457031 3.94677734 C91.64574352 13.17831465 131.19833414 31.95536996 164.375 61.3125 C165.24511719 62.07175781 166.11523438 62.83101562 167.01171875 63.61328125 C177.01541327 72.45485114 186.13906784 81.80160755 194.375 92.3125 C195.15359375 93.27414063 195.9321875 94.23578125 196.734375 95.2265625 C213.04519194 115.74494687 225.30779254 138.78488147 234.375 163.3125 C235.06529297 165.15134766 235.06529297 165.15134766 235.76953125 167.02734375 C249.63193143 206.1501176 253.84652468 252.48760346 245.375 293.3125 C245.06900879 294.80305908 245.06900879 294.80305908 244.75683594 296.32373047 C232.67317485 353.46168251 202.13438688 407.37704527 155.375 443.3125 C154.83037109 443.73354004 154.28574219 444.15458008 153.72460938 444.58837891 C109.52805142 478.55425215 56.50041971 496.84136031 0.75 496.625 C-0.71099625 496.62226578 -0.71099625 496.62226578 -2.20150757 496.61947632 C-16.2346594 496.57522498 -29.83647352 496.10795926 -43.625 493.3125 C-45.45693452 492.97993547 -47.28897011 492.64792732 -49.12109375 492.31640625 C-96.33763137 483.31875063 -139.1942155 459.46570437 -173.625 426.3125 C-174.14868164 425.81073242 -174.67236328 425.30896484 -175.21191406 424.79199219 C-182.22742763 418.03711689 -188.68059464 411.0473889 -194.625 403.3125 C-195.04604004 402.76787109 -195.46708008 402.22324219 -195.90087891 401.66210938 C-211.94943866 380.77964608 -224.46783313 357.97560358 -233.625 333.3125 C-233.89940918 332.59046387 -234.17381836 331.86842773 -234.45654297 331.12451172 C-238.14046363 321.33945345 -240.65601747 311.40052675 -242.875 301.1875 C-243.12137207 300.05634766 -243.36774414 298.92519531 -243.62158203 297.75976562 C-247.01084526 281.48568067 -248.00188402 265.82251604 -247.9375 249.25 C-247.93534485 248.25327271 -247.9331897 247.25654541 -247.93096924 246.22961426 C-247.88067813 231.7451942 -247.59555759 217.54046478 -244.625 203.3125 C-244.42100586 202.32024414 -244.21701172 201.32798828 -244.00683594 200.30566406 C-233.84688498 152.25663837 -211.66902101 109.66842933 -177.625 74.3125 C-177.12323242 73.78881836 -176.62146484 73.26513672 -176.10449219 72.72558594 C-160.20108792 56.20854549 -141.60540677 42.52051743 -121.625 31.3125 C-120.98304688 30.94705078 -120.34109375 30.58160156 -119.6796875 30.20507812 C-97.36552881 17.58226483 -73.27680118 9.14011428 -48.1875 4 C-47.10927979 3.77896606 -47.10927979 3.77896606 -46.00927734 3.5534668 C-30.69956163 0.64390493 -15.54790345 -0.06221224 0 0 Z M-44.625 20.3125 C-45.67429688 20.52680664 -46.72359375 20.74111328 -47.8046875 20.96191406 C-95.92187073 30.96690949 -144.37887856 57.62363289 -175.625 96.3125 C-176.52311251 97.38699048 -177.42158507 98.46118005 -178.3203125 99.53515625 C-217.34666932 146.68565213 -234.71247131 205.47991174 -231.625 266.3125 C-230.78676174 275.05999758 -229.27944095 283.68734786 -227.625 292.3125 C-227.4919043 293.03985352 -227.35880859 293.76720703 -227.22167969 294.51660156 C-223.03423971 317.29950503 -214.52178681 338.94330755 -203.625 359.3125 C-203.01140625 360.46878906 -202.3978125 361.62507813 -201.765625 362.81640625 C-193.69100195 377.48085597 -183.74725751 390.83261461 -172.625 403.3125 C-171.92262207 404.10744873 -171.92262207 404.10744873 -171.20605469 404.91845703 C-165.68445134 411.14955065 -160.02974041 416.97713276 -153.625 422.3125 C-152.75230469 423.09625 -151.87960938 423.88 -150.98046875 424.6875 C-116.16939239 455.69210465 -70.72382691 474.34157088 -24.625 479.3125 C-23.64402344 479.42464844 -22.66304687 479.53679687 -21.65234375 479.65234375 C12.16004584 482.90439176 45.39210474 478.41488822 77.375 467.3125 C78.07173828 467.07418457 78.76847656 466.83586914 79.48632812 466.59033203 C89.89401878 462.99696585 99.66467596 458.48866447 109.375 453.3125 C110.04563477 452.95784668 110.71626953 452.60319336 111.40722656 452.23779297 C129.92747802 442.37422828 146.18459311 429.7663472 161.375 415.3125 C161.94299316 414.77318848 162.51098633 414.23387695 163.09619141 413.67822266 C171.69348027 405.45627826 179.29649359 396.86538731 186.375 387.3125 C187.22523745 386.19269089 188.0754977 385.0728991 188.92578125 383.953125 C195.68433515 374.91511303 201.15956382 365.30556475 206.375 355.3125 C206.74979492 354.61157227 207.12458984 353.91064453 207.51074219 353.18847656 C218.82071349 331.85625355 226.85795499 307.18409683 230.375 283.3125 C230.59542969 282.01570313 230.81585938 280.71890625 231.04296875 279.3828125 C234.08768059 258.74416177 233.36619721 236.92575032 230.375 216.3125 C230.24609375 215.41015625 230.1171875 214.5078125 229.984375 213.578125 C222.19320718 160.77132092 195.34927361 107.44309622 153.375 73.3125 C152.22592062 72.34060214 151.07755672 71.36785809 149.9296875 70.39453125 C129.14044506 52.9367812 105.83873562 39.66461673 80.375 30.3125 C79.60462402 30.02503906 78.83424805 29.73757812 78.04052734 29.44140625 C75.82258734 28.6163915 73.60050504 27.80436581 71.375 27 C70.42524292 26.65424927 70.42524292 26.65424927 69.45629883 26.30151367 C33.69881318 13.74928557 -7.7669149 12.51103031 -44.625 20.3125 Z " fill="#242429" transform="translate(255.625,7.6875)"/>
<path d="M0 0 C2.73225877 2.1835206 5.34379052 4.44207588 7.92578125 6.80078125 C8.704375 7.49816406 9.48296875 8.19554688 10.28515625 8.9140625 C23.89895375 21.75328186 32.72076799 38.69175428 36.92578125 56.80078125 C37.15136719 57.75082031 37.37695312 58.70085937 37.609375 59.6796875 C42.3260576 83.06792744 37.49735278 109.08726204 24.67578125 129.23828125 C20.12511107 136.05250231 14.70302578 142.01509046 8.92578125 147.80078125 C8.2090625 148.52910156 7.49234375 149.25742188 6.75390625 150.0078125 C-9.76674262 165.75211509 -33.64564016 174.24688961 -56.26171875 174.11328125 C-57.26984619 174.1076416 -58.27797363 174.10200195 -59.31665039 174.09619141 C-85.94956779 173.66618187 -108.60696963 162.530629 -127.07421875 143.80078125 C-127.82316406 143.06214844 -128.57210937 142.32351562 -129.34375 141.5625 C-146.54266511 123.54943506 -153.80058559 98.77880225 -153.47631836 74.31787109 C-152.64233286 48.90863777 -141.98547107 26.50762556 -124.07421875 8.80078125 C-123.28402344 8.00027344 -122.49382812 7.19976562 -121.6796875 6.375 C-88.89685422 -25.10304389 -36.30019714 -25.96824776 0 0 Z M-109.07421875 16.80078125 C-109.72261719 17.29578125 -110.37101562 17.79078125 -111.0390625 18.30078125 C-124.66905602 29.09681572 -133.5763751 47.02496636 -136.6328125 63.921875 C-139.1653958 86.17723086 -135.33953187 107.60644683 -121.51171875 125.73828125 C-120.37388208 127.09917401 -119.22865393 128.4539402 -118.07421875 129.80078125 C-117.62820312 130.38988281 -117.1821875 130.97898438 -116.72265625 131.5859375 C-105.63253428 145.82150342 -85.8110564 155.52233373 -68.07421875 157.80078125 C-47.02467141 159.82493804 -26.05986894 155.1548495 -9.07421875 142.17578125 C-7.73463659 141.05822928 -6.40051873 139.9340646 -5.07421875 138.80078125 C-3.55828125 137.65609375 -3.55828125 137.65609375 -2.01171875 136.48828125 C12.59602315 123.12375143 22.34204328 102.76615921 23.26171875 82.890625 C23.64398761 61.3235978 18.30363566 42.31635022 3.92578125 25.80078125 C3.25869141 24.92099609 3.25869141 24.92099609 2.578125 24.0234375 C-9.15021205 8.944147 -28.21193353 1.30868668 -46.5234375 -1.78125 C-69.59983612 -4.49761375 -91.43056253 1.40268127 -109.07421875 16.80078125 Z " fill="#24252B" transform="translate(313.07421875,98.19921875)"/>
<path d="M0 0 C1.2360498 0.4019458 1.2360498 0.4019458 2.49707031 0.81201172 C41.10396053 13.43743443 75.16378693 33.16378693 104 62 C104.33656708 65.87052146 104.29598877 68.78561573 102 72 C99.50280928 73.87289304 98.26675951 74.02071566 95.1328125 73.77734375 C91.54659224 72.88749608 90.22861303 71.82541506 87.625 69.25 C41.40361275 25.7798858 -19.04555847 5.21398518 -82 7 C-135.4173313 8.97464276 -188.01353344 30.29665365 -226.80371094 67.23242188 C-230.32921683 70.54913334 -233.66732188 73.53346438 -238.5 74.5 C-242.30542313 73.73891537 -243.71254622 72.07172365 -246 69 C-246.48750287 64.9452886 -246.58416931 62.82873477 -244.19921875 59.4453125 C-243.37035156 58.67960937 -242.54148437 57.91390625 -241.6875 57.125 C-240.76710938 56.27035156 -239.84671875 55.41570312 -238.8984375 54.53515625 C-234.35437849 50.56063563 -229.77525943 46.69558191 -225 43 C-224.17870605 42.36408936 -224.17870605 42.36408936 -223.34082031 41.71533203 C-161.36462082 -5.90646977 -75.24184179 -24.95025731 0 0 Z " fill="#24252B" transform="translate(327,314)"/>
</svg>
